#!OML:ASF I:\Random Stuff\random\construction\7_22_03\Session 2\subj1.ASF
:FULLY-SPECIFIED
:DEGREES
341
root -2.20331 17.7872 0.689405 -153.322 82.4353 -160.969
lowerback 1.36767 0.0182994 1.43952
upperback -1.87132 0.12644 1.62867
thorax -2.68817 0.0620937 0.860081
lowerneck -22.8084 -0.364047 1.18804
upperneck 43.4821 1.40653 -0.804166
head 21.5634 1.25872 -0.0423338
rclavicle 5.889e-015 2.06736e-014
rhumerus -34.2621 25.7261 -98.3997
rradius 87.1499
rwrist -47.6244
rhand -37.9564 19.6889
rfingers 7.12502
rthumb -10.9972 -10.003
lclavicle 5.889e-015 2.06736e-014
lhumerus -31.3372 -30.9175 107.243
lradius 68.2692
lwrist 42.5401
lhand -15.497 55.8986
lfingers 7.12502
lthumb 10.6853 85.6069
rfemur -1.08586 4.64665 21.4591
rtibia 7.95139e-015
rfoot -3.02185 -19.8989
rtoes -2.34971
lfemur -16.7827 -21.3034 -9.85106
ltibia 20.3592
lfoot -11.3472 11.2997
ltoes -36.8501
342
root -2.20018 17.7864 0.68583 -153.211 82.5916 -160.854
lowerback 1.33519 0.0078744 1.48104
upperback -1.90413 0.110696 1.54213
thorax -2.70329 0.0520452 0.748574
lowerneck -22.7877 -0.296921 1.33341
upperneck 43.4887 1.52468 -0.965874
head 21.5685 1.30448 -0.125488
rclavicle -4.03781e-015 -1.90833e-014
rhumerus -34.3083 25.7485 -98.6316
rradius 87.1652
rwrist -47.6153
rhand -38.0534 19.6043
rfingers 7.12502
rthumb -11.0908 -10.0827
lclavicle -4.03781e-015 -1.90833e-014
lhumerus -31.314 -31.1113 107.389
lradius 68.259
lwrist 41.5836
lhand -16.1983 56.021
lfingers 7.12502
lthumb 10.0088 85.763
rfemur -1.08849 4.79255 21.3984
rtibia -7.95139e-016
rfoot -2.95451 -19.9043
rtoes -2.98337
lfemur -16.6995 -21.3603 -9.91649
ltibia 20.3238
lfoot -11.2884 11.4944
ltoes -36.8256
343
root -2.19738 17.7849 0.682801 -152.982 82.7778 -160.618
lowerback 1.29721 0.0103702 1.50839
upperback -1.93324 0.112376 1.47666
thorax -2.71165 0.0513397 0.665998
lowerneck -22.7041 -0.185627 1.48198
upperneck 43.458 1.70353 -1.10757
head 21.5282 1.3763 -0.184529
rclavicle 5.15598e-015 -2.18663e-014
rhumerus -34.374 25.8337 -98.8179
rradius 87.2134
rwrist -47.5933
rhand -38.1905 19.3762
rfingers 7.12502
rthumb -11.223 -10.3036
lclavicle 5.15598e-015 -2.18663e-014
lhumerus -31.4729 -31.3709 107.575
lradius 68.3463
lwrist 40.9097
lhand -16.7076 56.2097
lfingers 7.12502
lthumb 9.51747 85.9747
rfemur -1.1006 4.9721 21.3433
rtibia 6.36111e-015
rfoot -2.85538 -19.9241
rtoes -3.63569
lfemur -16.5979 -21.2658 -9.99595
ltibia 20.2716
lfoot -11.2424 11.5744
ltoes -36.9383
344
root -2.19336 17.7843 0.679866 -152.5 82.98 -160.085
lowerback 1.26003 -0.000282767 1.52584
upperback -1.91907 0.0959956 1.44417
thorax -2.676 0.0423884 0.623407
lowerneck -22.6664 -0.0683851 1.62306
upperneck 43.4187 1.89642 -1.26438
head 21.4979 1.44781 -0.247131
rclavicle 5.34234e-016 -4.17448e-015
rhumerus -34.3913 26.0379 -98.9638
rradius 87.2206
rwrist -47.5822
rhand -38.3175 19.3225
rfingers 7.12502
rthumb -11.3455 -10.3506
lclavicle 5.34234e-016 -4.17448e-015
lhumerus -31.7181 -31.6136 107.705
lradius 68.6025
lwrist 40.8112
lhand -17.0617 56.7492
lfingers 7.12502
lthumb 9.17577 86.5296
rfemur -1.06564 5.1807 21.3106
rtibia 1.51076e-014
rfoot -2.82616 -19.9595
rtoes -3.56178
lfemur -16.4349 -21.2278 -10.0624
ltibia 20.22
lfoot -11.2629 11.7206
ltoes -36.8885
345
root -2.19311 17.785 0.678191 -152.177 83.1406 -159.731
lowerback 1.25411 -0.0278115 1.50349
upperback -1.90939 0.0575342 1.43026
thorax -2.66266 0.0233738 0.622985
lowerneck -22.6931 0.021933 1.66164
upperneck 43.3968 2.06159 -1.3558
head 21.4978 1.49957 -0.26316
rclavicle 8.39865e-015 1.94809e-014
rhumerus -34.3729 26.2963 -99.0614
rradius 87.183
rwrist -47.6278
rhand -38.4442 19.5275
rfingers 7.12502
rthumb -11.4677 -10.1389
lclavicle 8.39865e-015 1.94809e-014
lhumerus -32.005 -31.907 107.803
lradius 68.9588
lwrist 41.3849
lhand -17.1945 57.1266
lfingers 7.12502
lthumb 9.04764 86.9126
rfemur -1.05444 5.34158 21.2708
rtibia 1.11319e-014
rfoot -2.84719 -19.9838
rtoes -3.30801
lfemur -16.3168 -21.263 -10.1131
ltibia 20.1682
lfoot -11.2673 11.8849
ltoes -36.6754
